<svg width="48" height="48" viewBox="0 0 48 48" fill="none" xmlns="http://www.w3.org/2000/svg">
<circle cx="24" cy="24" r="24" fill="#33383B"/>
<path d="M33.8881 28.9201V31.9201C33.8892 32.1986 33.8322 32.4743 33.7206 32.7294C33.6091 32.9846 33.4454 33.2137 33.2402 33.402C33.035 33.5902 32.7927 33.7336 32.5289 33.8228C32.265 33.912 31.9855 33.9452 31.7081 33.9201C28.631 33.5857 25.6751 32.5342 23.0781 30.8501C20.6619 29.3148 18.6135 27.2663 17.0781 24.8501C15.3881 22.2413 14.3364 19.2711 14.0081 16.1801C13.9831 15.9036 14.016 15.6249 14.1046 15.3617C14.1932 15.0986 14.3357 14.8568 14.5229 14.6517C14.7101 14.4466 14.9379 14.2828 15.1919 14.1706C15.4459 14.0584 15.7205 14.0004 15.9981 14.0001H18.9981C19.4834 13.9953 19.9539 14.1672 20.3219 14.4836C20.6898 14.8001 20.9302 15.2395 20.9981 15.7201C21.1247 16.6802 21.3596 17.6228 21.6981 18.5301C21.8327 18.888 21.8618 19.277 21.782 19.651C21.7023 20.0249 21.517 20.3682 21.2481 20.6401L19.9781 21.9101C21.4017 24.4136 23.4746 26.4865 25.9781 27.9101L27.2481 26.6401C27.52 26.3712 27.8633 26.1859 28.2372 26.1062C28.6112 26.0264 29.0002 26.0556 29.3581 26.1901C30.2654 26.5286 31.2081 26.7635 32.1681 26.8901C32.6539 26.9586 33.0975 27.2033 33.4146 27.5776C33.7318 27.9519 33.9003 28.4297 33.8881 28.9201Z" stroke="white" stroke-width="2" stroke-linecap="round" stroke-linejoin="round"/>
</svg>
